<?xml version="1.0" encoding="utf-8"?>
<!-- Generator: Adobe Illustrator 26.0.3, SVG Export Plug-In . SVG Version: 6.00 Build 0)  -->
<svg version="1.1" id="Layer_1" xmlns="http://www.w3.org/2000/svg" xmlns:xlink="http://www.w3.org/1999/xlink" x="0px" y="0px"
	 viewBox="0 0 32 32" style="enable-background:new 0 0 32 32;" xml:space="preserve">
<style type="text/css">
	.st0{fill:#0F62FE;}
</style>
<g>
	<rect x="11.6" y="3.9" class="st0" width="8" height="0.7"/>
	<path class="st0" d="M30.6,4.9H23V1.3c0-0.2-0.2-0.4-0.4-0.4h-14c-0.2,0-0.4,0.2-0.4,0.4v3.6H0.6c-0.2,0-0.4,0.2-0.4,0.4v22
		c0,0.2,0.2,0.4,0.4,0.4h7.6v3.6c0,0.2,0.2,0.4,0.4,0.4h14c0.2,0,0.4-0.2,0.4-0.4v-3.6h7.6c0.2,0,0.4-0.2,0.4-0.4v-22
		C31,5.1,30.8,4.9,30.6,4.9z M8.2,7.9H4.6v0.7h3.6v2.3H4.6v0.7h3.6v2.3H4.6v0.7h3.6v12.3H1V5.7h7.3V7.9z M22.2,30.9H9V1.7h13.3V30.9
		z M30.2,26.9H23V14.7h3.6v-0.7H23v-2.3h3.6v-0.7H23V8.7h3.6V7.9H23V5.7h7.3V26.9z"/>
	<rect x="11.6" y="9.9" class="st0" width="8" height="0.7"/>
	<rect x="11.6" y="6.9" class="st0" width="8" height="0.7"/>
</g>
</svg>
